<svg xmlns="http://www.w3.org/2000/svg" viewBox="0 0 2145 43">
<path d="M43 0.57373L78.5 36.0732L114 0.57373L149.5 36.0732L185 0.57373L220.5 36.0732L256 0.57373L291.5 36.0732L327 0.57373L362.5 36.0732L398 0.57373L433.5 36.0732L469 0.57373L504.5 36.0732L540 0.57373L575.5 36.0732L611 0.57373L646.5 36.0732L682 0.57373L717.5 36.0732L753 0.57373L788.5 36.0732L824 0.57373L859.5 36.0732L895 0.57373L930.5 36.0732L966 0.57373L1001.5 36.0732L1037 0.57373L1072.5 36.0732L1108 0.57373L1143.5 36.0732L1179 0.57373L1214.5 36.0732L1250 0.57373L1285.5 36.0732L1321 0.57373L1356.5 36.0732L1392 0.57373L1427.5 36.0732L1463 0.57373L1498.5 36.0732L1534 0.57373L1569.5 36.0732L1605 0.57373L1640.5 36.0732L1676 0.57373L1711.5 36.0732L1747 0.57373L1782.5 36.0732L1818 0.57373L1853.5 36.0732L1889 0.57373L1924.5 36.0732L1960 0.57373L1995.5 36.0732L2031 0.57373L2066.5 36.0732L2102 0.57373L2144.43 43H0.573242L43 0.57373Z"></path>
</svg>