<svg data-bbox="24 17.5 152 165" viewBox="24 17.5 152 165" height="200" width="200" xmlns="http://www.w3.org/2000/svg" data-type="color" aria-hidden="true"><path d="M91.918 23.17c-.16-.056-59.887-19.715-66.487 14.503-3.155 16.355 19.322 27.757 5.998 51.83-6.047 10.925-7.807 19.573-7.364 26.258.13 1.957.448 3.746.903 5.374 1.648 5.894 5.2 9.541 7.835 11.75 4.536 3.804 8.992 5.894 13.427 7.349 1.421.493 6.693 2.506 5.87 4.983 0-.238 5.412-1.96 12.083.092v-.001c7.371 2.811 14.89 7.846 22.813 19.918 0 0 26.587 40.257 67.893-2.144 12.72-13.057 64.331-95.281-62.971-139.912z" fill="#C78000" data-color="1"/></svg>