<svg xmlns="http://www.w3.org/2000/svg" viewBox="0 0 256 256" width="48" height="48"><g fill="none" stroke-miterlimit="10" font-family="none" font-weight="none" font-size="none" text-anchor="none" style="mix-blend-mode:normal"><path d="M128 21.333C69.09 21.333 21.333 69.09 21.333 128c0 58.91 47.757 106.667 106.667 106.667 58.91 0 106.667-47.757 106.667-106.667 0-58.91-47.757-106.667-106.667-106.667z" fill="#000"/><path d="m181.067 80-19.98 102.005s-.858 4.662-6.64 4.662c-3.071 0-4.655-1.462-4.655-1.462l-43.275-35.91-21.173-10.671-27.173-7.227S53.333 130 53.333 126c0-3.333 4.976-4.923 4.976-4.923l113.686-45.162c-.006-.006 3.472-1.254 6.005-1.248 1.557 0 3.333.666 3.333 2.666 0 1.334-.266 2.667-.266 2.667z" fill="#fff"/><path d="m122.667 162.693-18.272 17.995s-.795.613-1.856.64a2.635 2.635 0 0 1-1.168-.23l5.14-31.813z" fill="#b0bec5"/><path d="M159.45 97.045a2.668 2.668 0 0 0-3.738-.496l-70.379 42.118s11.232 31.424 12.944 36.864c1.718 5.445 3.094 5.573 3.094 5.573l5.14-31.813 52.438-48.512a2.66 2.66 0 0 0 .502-3.734z" fill="#cfd8dc"/></g></svg>