<svg xmlns="http://www.w3.org/2000/svg" viewBox="0 0 256 256" width="48" height="48"><g fill="none" stroke-miterlimit="10" font-family="none" font-weight="none" font-size="none" text-anchor="none" style="mix-blend-mode:normal"><path d="M128 26.667c-14.075 0-56.907 0-80.587 21.621C33.312 62.336 26.667 82.635 26.667 112v16c0 29.365 6.645 49.664 20.912 63.872 7.104 6.48 16.789 11.659 28.629 15.237L80 208.251v28.416C80 240 80.965 240 81.285 240c.656 0 1.707-.208 3.702-1.979.48-.474 4-4.282 21.12-23.461l1.728-1.936 2.586.165c5.734.358 11.648.544 17.579.544 14.075 0 56.907 0 80.587-21.626 14.096-14.048 20.746-34.347 20.746-63.707v-16c0-29.365-6.645-49.664-20.912-63.872C184.907 26.667 142.075 26.667 128 26.667z" fill="#fff"/><path d="M178.405 153.888c-5.925-4.992-8.661-6.501-16.842-11.413-3.408-2.043-8.603-3.808-11.328-3.808-1.862 0-4.091 1.424-5.456 2.789-3.5 3.499-4.646 7.877-10.78 7.877-6 0-16.48-6.106-24-14-7.892-7.52-14-18-14-24 0-6.133 4.3-7.36 7.798-10.864 1.366-1.36 2.87-3.59 2.87-5.45 0-2.726-1.766-7.84-3.808-11.248-4.912-8.187-6.416-10.923-11.414-16.843-1.69-2.005-3.616-2.923-5.632-2.928-3.408-.005-7.882 1.685-10.912 3.941-4.554 3.398-9.317 8.022-10.592 13.782-.17.784-.272 1.573-.304 2.362-.245 6 2.112 12.09 4.656 17.248 5.99 12.155 13.915 23.92 22.539 34.427 2.757 3.36 5.76 6.485 8.87 9.504 3.018 3.104 6.143 6.107 9.503 8.87 10.507 8.623 22.272 16.549 34.427 22.538 5.11 2.517 11.125 4.832 17.067 4.661a13.813 13.813 0 0 0 2.544-.31c5.76-1.268 10.384-6.036 13.78-10.591 2.257-3.03 3.948-7.499 3.942-10.912-.005-2.016-.922-3.941-2.928-5.632zM181.333 128a5.335 5.335 0 0 1-5.333-5.333v-5.334c0-26.464-21.536-48-48-48A5.335 5.335 0 0 1 122.667 64 5.335 5.335 0 0 1 128 58.667c32.347 0 58.667 26.32 58.667 58.666v5.334a5.335 5.335 0 0 1-5.334 5.333zm-32.757-10.667a5.334 5.334 0 0 1-5.157-3.99c-1.462-5.604-5.835-9.983-11.42-11.423a5.338 5.338 0 0 1-3.828-6.501 5.339 5.339 0 0 1 6.5-3.83c9.324 2.416 16.63 9.718 19.068 19.062a5.336 5.336 0 0 1-5.163 6.682z" fill="#000"/><path d="M165.333 122.667a5.335 5.335 0 0 1-5.333-5.334c0-17.002-13.301-31.03-30.283-31.925a5.332 5.332 0 0 1-5.045-5.605c.155-2.944 2.71-5.206 5.605-5.046 22.65 1.195 40.39 19.899 40.39 42.576a5.335 5.335 0 0 1-5.334 5.334z" fill="#000"/><path d="M128 21.333c-24 0-61.397 2.208-84.181 23.019C27.712 60.389 21.333 82.885 21.333 112c0 2.41-.01 5.099.011 8-.021 2.896-.01 5.584-.01 7.995 0 29.114 6.378 51.61 22.485 67.648 8.672 7.92 19.488 13.13 30.848 16.565v24.459c0 8.512 5.594 8.666 6.618 8.666h.048c2.635-.01 4.912-1.301 7.195-3.328.859-.762 10.773-11.813 21.557-23.898 6.422.41 12.523.56 17.91.56 24 0 61.392-2.214 84.18-23.024 16.102-16.032 22.486-38.534 22.486-67.648 0-2.411.01-5.1-.01-8 .02-2.902.01-5.584.01-8 0-29.115-6.378-51.611-22.485-67.648C189.392 23.54 152 21.333 128 21.333zm90.667 104.806v1.856c0 26.165-5.574 43.994-17.526 56.064-20.704 18.608-60.144 18.608-73.146 18.608-3.958 0-10.38-.006-17.958-.534a63783.46 63783.46 0 0 1-24.704 27.643v-31.27c-11.221-2.693-22.309-7.109-30.474-14.442-11.952-12.075-17.526-29.904-17.526-56.07v-1.855c0-1.872-.005-3.894.011-6.256-.016-2.134-.016-4.15-.01-6.027V112c0-26.165 5.573-43.995 17.525-56.064 20.698-18.608 60.144-18.608 73.14-18.608 12.998 0 52.438 0 73.137 18.608C213.093 68.006 218.66 85.835 218.66 112v1.856c0 1.872.006 3.893-.01 6.256.016 2.139.016 4.155.016 6.027z" fill="#000"/></g></svg>